v 0.7593866646569322 2.143246928860762 1.7186753509785657
v 0.6357913300812671 3.878751300162534 0.0
v 0.8501940164190587 2.5001318369328382 1.3614920716215497
v 0.6998265288177228 0.9877693115688259 2.3829432558093506
v 0.9511242476224584 1.6429737642865596 1.8231074214056986
v 1.046181047545297 1.8973659313923488 1.5635010802460472
v 1.3124779899678058 1.523165207921392 1.3313304921795575
v 0.48791892644501944 2.669097264203037 1.4594360723585744
v 0.9484980728370572 0.7079337794311373 2.139823197958372
v 0.08000951794853023 0.0 2.991084541928204
v 1.226784033020628 0.3898809180859131 1.7390646884551544
v 1.5072874717636644 1.134015503138059 1.0852729896888826
v 1.4458595820046638 3.102715884009328 0.0
v 1.9996028772924153 0.11193519458483041 0.0
v 0.0 2.7364464867796987 1.4958170328006788
v 1.4431231893844867 1.8166302320374583 0.9626148016977667
v 0.2262214635294539 0.0 2.936294524238777
v 1.4091868887033947 0.9152806838402842 1.3313304921795577
v 2.0 0.0 0.0
v 0.0 2.3491183975847467 1.8432598797273168
v 1.163815356891698 2.2229775458125984 1.1980033423857352
v 0.27768047760968784 1.232061230189738 2.5756906333645
v 1.9833544588363832 0.6965426776727663 0.0
v 0.0 0.0 3.0
v 0.6859099727685991 1.864067506271139 1.9707678368499848
v 0.39270068872782327 1.994058810033282 2.0555537810609263
v 1.609636749405268 2.221066332543376 0.39895299181534355
v 0.0 0.0 3.0
v 0.9666120743703169 2.9844147447684652 0.8083019222024749
v 0.0 4.0 0.0
v 1.7048349204480544 2.482987680896109 0.0
v 0.8173528918841353 0.0 2.3775248155694375
v 1.1952256696876495 0.0 1.808172111877631
v 1.0928287975344606 3.5735587150689216 0.0
v 1.6345548740206879 1.4176535834400907 0.727615119954972
v 1.7980199169004853 1.8166987649834578 0.1742481570997868
v 1.8411978991222273 1.9366511582444546 0.0
v 0.0 2.045924160344947 2.0865975845526905
v 1.9065358826950396 1.5424796853900793 0.0
v 1.99748899084878 0.27844278169756 0.0
v 0.0 3.26124699018631 0.9528028953698535
v 0.4885690604629949 1.1458288100027323 2.510065027778919
v 1.2076113012610816 1.2948375594498982 1.5933831395759486
v 0.43531761699252375 2.2904074092818134 1.8097050500362606
v 1.994402852015195 0.41201810403039 0.0
v 1.3140193745298774 2.6661107716568053 0.6371947174594081
v 0.0 1.2661378847533102 2.599070205545851
v 0.4618474618677786 0.0 2.7689580578415387
v 0.5552806652763327 3.1824752639228424 0.9133577450951711
vn -0.569473786211137 -0.48409211006773945 -0.664345117983504
vn -0.46041291759868475 -0.6802830857486619 -0.5702936686940736
vn -0.579169712936206 -0.5241881348075648 -0.6243310363455905
vn -0.6967066506168605 -0.19884467188807595 -0.6892464286798728
vn -0.7364435716273959 -0.29163602980979597 -0.6104091184815839
vn -0.7511970467129208 -0.33361546202760184 -0.5695645007423615
vn -0.8476940174796936 -0.2045201731726155 -0.4894755882519372
vn -0.3061587626713887 -0.6492019300322024 -0.6962784400525323
vn -0.8078014036974616 -0.1032749066476754 -0.5803371311930028
vn -0.3486311151760248 0.8268456313169567 -0.44134187145928566
vn -0.8816354803079024 -0.032860242236814774 -0.4707856033720572
vn -0.9007239586150316 -0.09688048180525069 -0.42345073222518975
vn -0.9740036715583236 -0.05148694562948494 -0.22060358614639897
vn -0.9012046843350912 0.4191848934906133 -0.11006426305459868
vn -0.14350514328924022 -0.5793420624416302 -0.8023521973145039
vn -0.8596303199233591 -0.23329190543691902 -0.4545443871901564
vn -0.5699604104282243 0.2601035726148469 -0.7794172579931004
vn -0.8918346181773085 -0.06440102932981191 -0.4477538623415713
vn -0.6895096033083935 0.7014288439859178 0.18048291822242019
vn -0.13447348598094533 -0.4796016621317439 -0.8671211721833352
vn -0.7627720795656322 -0.36726588559820694 -0.5322541910693476
vn -0.32001585788433495 -0.4238651992325995 -0.8473064047805031
vn -0.9382656062496963 0.3394679203516715 -0.06647693721134548
vn 0.14902791828819897 0.7814571085274312 0.6059005422531264
vn -0.5569496106676666 -0.43380425262892014 -0.7082520748844995
vn -0.2923506500817761 -0.5475231332898975 -0.7840596379799025
vn -0.8689515475218463 -0.26859370259789755 -0.41566889585839895
vn 0.14902791828819897 0.7814571085274312 0.6059005422531264
vn -0.5871285066324783 -0.5747677449153016 -0.5700194348480538
vn -0.8592877165009886 0.4072742632454122 -0.3094386769109892
vn -0.984997425955955 0.1285697034108679 -0.11510821962390091
vn -0.8448901712497849 0.39424113314541903 -0.36157229907962374
vn -0.8880852884174418 0.4155969576558206 -0.19642731297794505
vn -0.8558739547393566 -0.3447459859232229 -0.3855255877223181
vn -0.9099435458735129 -0.13024624071236537 -0.393749489019903
vn -0.9163724999740435 -0.16844680995277148 -0.36316265434107686
vn -0.9712474290095496 0.23180278341294067 -0.05427615723642653
vn -0.12166128999472202 -0.35637127866660584 -0.9263897895909415
vn -0.9548115578388019 0.2940145298660329 -0.043478100753093836
vn -0.9055677890636517 0.4107299720835992 -0.1060559731584005
vn -0.15400738192640018 -0.7085709199625713 -0.6886283305931954
vn -0.5157490357862498 -0.30741114258692354 -0.7996882652002316
vn -0.832882751426126 -0.17001758486108876 -0.5266880891142767
vn -0.30030493216100734 -0.6041683239910248 -0.7381040468698493
vn -0.9206901045388695 0.3790465949365882 -0.09302370811348985
vn -0.7722234709209176 -0.40800890172691956 -0.4870314641483067
vn 0.038609236742733324 0.7298883894002004 -0.6824751027377665
vn -0.7571337595189646 0.3382335031290227 -0.558879743377543
vn -0.3094843743299917 -0.7081380964236844 -0.6346336411182549

f  1//1 3//3 21//21 6//6
f  1//1 6//6 5//5 25//25
f  1//1 25//25 26//26 44//44
f  1//1 44//44 8//8 3//3
f  2//2 34//34 29//29 49//49
f  2//2 49//49 41//41 30//30
f  2//2 30//30 41//41 15//15 20//20 38//38 47//47 28//28 24//24 10//10 17//17 48//48 32//32 33//33 19//19 14//14 40//40 45//45 23//23 39//39 37//37 31//31 13//13 34//34
f  3//3 29//29 46//46 21//21
f  3//3 8//8 49//49 29//29
f  4//4 5//5 43//43 9//9
f  4//4 9//9 32//32 48//48
f  4//4 48//48 17//17 42//42
f  4//4 42//42 25//25 5//5
f  5//5 6//6 7//7 43//43
f  6//6 21//21 16//16 7//7
f  7//7 16//16 35//35 12//12
f  7//7 12//12 18//18 43//43
f  8//8 44//44 20//20 15//15
f  8//8 15//15 41//41 49//49
f  9//9 11//11 33//33 32//32
f  9//9 43//43 18//18 11//11
f  10//10 24//24 28//28 47//47 22//22
f  10//10 22//22 42//42 17//17
f  11//11 14//14 19//19 33//33
f  11//11 18//18 40//40 14//14
f  12//12 45//45 40//40 18//18
f  12//12 35//35 23//23 45//45
f  13//13 31//31 27//27 46//46
f  13//13 46//46 29//29 34//34
f  16//16 21//21 46//46 27//27
f  16//16 27//27 36//36 35//35
f  20//20 44//44 26//26 38//38
f  22//22 26//26 25//25 42//42
f  22//22 47//47 38//38 26//26
f  23//23 35//35 36//36 39//39
f  27//27 31//31 37//37 36//36
f  36//36 37//37 39//39
