v -5.728337818406004E-9 2.1472415116382755E-9 1.9999999938824435
v 6.093722009897207E-9 -5.394926664723099E-10 -1.999999993882443
v -0.9326703784269501 -0.32262992007697233 0.17446024214347755
v -0.27403950879873507 -0.6720144225425474 -0.9622255544935847
v -0.7489585459774204 -0.6282631242052908 -0.23301089470155717
v 3.1512052162371915E-9 -5.2435108425789095E-9 1.9999999938824429
v -0.10462866202904114 0.005560601502976785 1.8897194934837391
v 0.013654448884967172 -0.006732879552593506 1.9846599259643811
v 3.744756710075386E-9 -4.837488754863252E-9 -1.999999993882443
v -2.933425079726362E-9 5.368381280489998E-9 -1.999999993882443
v 6.117556723977561E-9 -3.9543264269236847E-17 1.9999999938824433
v -0.4826333740146941 -0.8608304864554558 0.1744602421434776
v 0.1592420537410574 -0.9739641001824835 -0.17446024214347777
v -0.06609310626466736 0.12137559756742078 1.8521998298266849
v -0.4714031785970708 -0.5617609959552649 0.9465095804488185
v -8.883875004249964E-10 6.0527074867510075E-9 1.999999993882443
v 6.1175567239775596E-9 -3.9543264269236834E-17 -1.9999999938824433
v 0.013613302630832472 -0.03623920823137077 1.960538633935804
v -4.694235016783345E-9 3.922837987769586E-9 1.999999993882443
v -0.020872863538531832 -0.9338342275354634 -0.42302909693859475
v -0.30533272316012317 -0.8857204217986384 0.41280129676180854
v -6.104102352800984E-9 4.055055333932719E-10 -1.999999993882443
v 1.8843804534920796E-9 5.820104000581093E-9 -1.9999999938824435
v -0.6497059580799175 -0.5444237406039679 0.6828988953514906
v -0.10806249470426883 0.03926756332204648 1.8783924458469226
v 5.704994516458652E-9 -2.208514849001424E-9 1.999999993882443
vn -0.4714323983723999 -0.13757925702810472 0.8711047249329104
vn 0.7716761933537829 -0.5822635244455664 0.25590045078358536
vn -0.7131433151089358 0.10446445886402679 0.6931910190919118
vn -0.3831317632423598 -0.7859965888359617 -0.4852003857511169
vn -0.8903840606430381 -0.4091876223061338 -0.19945353921218642
vn -0.01742557529173293 -0.5070620914228777 0.8617333605980503
vn -0.7531372003367102 -0.25647607929757993 0.6058088627753178
vn 0.7195249035273054 -0.08585360294686156 0.6891393705666978
vn -0.12545968377155864 -0.9911206480102899 -0.044042352748275004
vn -0.713488040219585 0.46906647586421385 0.5204915539025994
vn 0.3864650274021868 -0.07219378458788106 0.9194742193568591
vn -0.7230214203460581 -0.6651048372644223 0.1867500499818807
vn -0.39692210626340463 -0.12314248251872635 0.9095541603217194
vn -0.6714708066554937 0.08603108186967415 0.7360201143730748
vn -0.7573142140090721 -0.5066163793558973 0.4120861868931582
vn -0.3084814330678542 0.27327424270915474 0.9111313811542993
vn 0.744264296355615 -0.03288159354124046 0.667075301578817
vn 0.045739082291041774 -0.7704411999269626 0.6358681418393876
vn -0.43167302662196816 0.31303952423096865 0.8459696533305898
vn -0.07108578911443864 -0.9771528866664698 -0.20029739555311907
vn -0.5008943841333592 -0.2895831642829248 0.8156263892908023
vn -0.7099327197756916 -0.7036545596571031 -0.02942437876417588
vn -0.06237590116894587 0.6652643460227499 0.743997712942913
vn -0.8439486458747683 -0.4042290583628364 0.35263231772093667
vn -0.7894331341522678 0.21236061505778234 0.5759325445525784
vn 0.43701390122584427 -0.250415364796993 0.8638929304080205

f  1//1 6//6 26//26 11//11 8//8 21//21 13//13 17//17 2//2 9//9 22//22 10//10 23//23 3//3 14//14 16//16 19//19
f  1//1 19//19 25//25 7//7
f  1//1 7//7 18//18 6//6
f  2//2 17//17 13//13 20//20
f  2//2 20//20 4//4 9//9
f  3//3 24//24 25//25 14//14 13//13 21//21 12//12 20//20 13//13 14//14
f  3//3 23//23 10//10 5//5
f  3//3 5//5 12//12 24//24
f  4//4 20//20 12//12 5//5
f  4//4 5//5 10//10 22//22
f  4//4 22//22 9//9
f  6//6 18//18 8//8 26//26
f  7//7 25//25 24//24 15//15
f  7//7 15//15 18//18
f  8//8 18//18 15//15 21//21
f  8//8 11//11 26//26
f  12//12 21//21 15//15 24//24
f  14//14 25//25 19//19 16//16
