v 15.58859784159224 3.414489894952736 2.416894773324397
v -2.808543139579711 -7.57317998815194 -2.196204128328862
v -2.5460314874603545 0.3139780931209377 1.2733644676937945
v -9.485525328860385 -5.916285843385096 -0.23682991213139526
v 17.442185064153836 6.599571823358323 1.453326828159523
v 1.0914110399386476 3.211565519653085 1.9847034356075954
v 3.8253983189656724 11.130202439430185 2.642762413369619
v 18.18475724806458 -3.4665004379928903 -0.4189338387298016
v 15.78184774238748 3.3650772978192993 2.4540741740238015
v 2.7050172123231278 11.23585022267907 2.935656223377772
v 3.6104907478373827 0.21132360073291823 0.5831618707817977
v 15.449325833449874 1.8420138870363878 1.788226148983181
v 4.90468929688215 -7.718900376527373 -3.0182031140526298
v 18.346128093797315 -0.7198231578460073 1.3930770171291726
v 7.575539622277238 10.616745417346971 1.6385587411972435
v -9.559304896814059 -3.4702534806413343 0.883859041405383
v 18.25090285069097 1.3933024008286148 2.7547645516955517
v 10.190232968782032 -5.907911107563915 -2.760345061252062
v -17.601488131431424 -4.754812319694224 0.5687192058616669
v 5.82698811474708 5.046561762080636 2.326203354281018
v -0.7786631035297712 -2.169211908028987 0.1360976069687556
v -9.814044921153036 -2.716240202802539 1.0959795228266398
v 16.092808989902515 -0.7262559486567355 0.3907109448418521
v -18.26587640539396 -5.550761027787562 0.0
v 15.881339504876095 -0.7412018191535298 0.31502197984532204
v -16.84591428200644 9.165210069137606 0.0
v 5.752603259248516 4.026765245876974 2.0117932798445475
v 9.483826468420602 -3.0964555889097403 -1.6616790537119384
v -9.387525713140526 -4.462064005485047 0.5057142433311368
v 9.485997017993753 -3.385281775976201 -1.8085679993772334
v -15.591902044711565 2.0109819461587675 -0.9196728592883703
v 3.0304052947224083 -0.0802505446640529 0.5155040099444563
v -6.234540939906938 11.318819502412566 4.465254202432
v 17.1686329464127 7.938879144393843 0.0
v 15.672226783818083 1.8183637094243486 1.8437713754974456
v 17.62043907658145 -7.164354349818831 0.0
v -17.387432677053948 -4.4596491247914525 0.7050256838072564
v 1.9742433512815232 3.5810476572978645 2.0608121438588314
v -17.219351697533423 -4.210719892318191 0.7927602848066869
v 15.811052319564032 3.3575168845537275 2.459903066204275
v -15.881559014169868 4.953505892931191 -1.7238995015865455
v -4.1209328269325205 1.709277513225619 1.7570539124673004
v 17.388458371054405 6.868306156739343 1.1934134937990086
v 0.3346889717708751 5.676832259408829 2.7817543515613967
v 15.714551974198109 2.9774692741751805 2.33292097707446
v 17.45003601350592 6.56001938644592 1.4901729477224037
v 15.52067471810557 3.01925024197843 2.293533137327081
v 16.06499055129528 -0.7280863251878624 0.3806077742901244
v 15.743853205795235 2.971054543531233 2.3390812737941267
v -9.912981124046947 -7.033751396180271 -0.9565777695489134
v 6.224987233829314 1.2262415817135135 0.8291298954458445
v -6.013894653840073 11.333652412557871 4.4573956881773
v -17.915239005612698 -5.150618684954953 0.32525629035378917
v 9.489048643722345 -3.4164965443265913 -1.8242894159762084
v 10.74446120159153 -7.587713734612398 -2.6919686272850005
v 1.745687142901816 5.488417129435857 2.6670046301848442
v 18.152493780364367 2.337563084451466 3.072474238266434
v 15.642956968931946 1.8215750252088607 1.836306652639326
v -4.346960315090268 -7.4943584595821955 -1.9427560334642633
v 18.110972299503924 2.6708125886542873 3.127838564987985
vn 0.2321548764878959 -0.02734946119569827 -0.9722942560229361
vn -0.17023780237290254 0.009533693843248281 -0.9853568893172401
vn -0.09464938937564657 0.29854102542908395 -0.949691923323858
vn -0.054139342518953804 0.5456029803471651 -0.8362932018304982
vn 0.45230761914363676 -0.7869853271542966 -0.41960923787311877
vn -0.07080741928415892 0.32003310048469735 -0.9447566480149632
vn -0.16624369057443686 -0.4898491316252258 -0.8558100628002706
vn 0.2882453628969374 -0.40822303921181685 -0.8661804436865798
vn 0.4511376787767144 -0.1422122843283715 -0.8810507709400544
vn -0.12357696761360072 -0.43546333220502004 -0.8916840356204251
vn -0.07870377081395825 0.4088276823963315 -0.9092115499519944
vn 0.16789637260417276 0.4481402325894649 -0.878055317164597
vn -0.051223134632258326 -0.3190066506932951 -0.9463672370131435
vn 0.32888964886308214 -0.050121856225590546 -0.9430373260901287
vn -0.1288075043858149 -0.5448906746716052 -0.8285546327610637
vn -0.06264391670696362 0.32051385060292853 -0.9451701493759178
vn 0.45472440139972575 -0.0712247685485251 -0.8877796748725837
vn 0.11118806441558492 0.16938003719412306 -0.9792587080703614
vn -0.013204772176318064 -0.05652373688930275 -0.9983139291624857
vn -0.06770581930834885 0.11036048690805228 -0.9915828180042264
vn -0.12369815476685854 0.42030079855654917 -0.8989137918844061
vn 0.03321133527658009 0.014109529341945195 -0.9993487521335559
vn 0.2196934998074108 0.4678573541095256 -0.8560632350171365
vn 0.01073162843517667 -0.5841599010188876 -0.8115676448656222
vn 0.23652700697090953 0.33019065948533416 -0.9137992686372776
vn 0.3290074884775703 -0.6680514521839638 -0.6674288949098461
vn 0.00548236374458125 0.34142277855786707 -0.9398938397338276
vn 0.11612987876807014 0.3092860188100213 -0.9438516884690944
vn -0.06721027950057501 0.4434857488244783 -0.893757891668122
vn 0.06977856252899174 0.3322565595763515 -0.9406043434036832
vn 0.1044119594414899 -0.6670225905890611 -0.737684896395098
vn -0.1058231813546011 0.40176483821966813 -0.9096078655433424
vn 0.1493585800264809 -0.23358356182522652 -0.9607969266278457
vn -0.0020615075862871323 -0.8247786414408352 -0.5654519809935071
vn 0.3121849619128586 0.4354292869749096 -0.8443588606747658
vn 0.275674602449468 -0.826947258676007 -0.49006300098310285
vn -0.02063437916170878 -0.16382293681131332 -0.9862739314060407
vn -0.05427019624938128 0.335768947989503 -0.9403796889369079
vn 0.04400213798514466 -0.48419632704782684 -0.8738522350638752
vn 0.3554498293099161 -0.11072700845586955 -0.9281136506064143
vn 0.2374539591646538 -0.473705598692169 -0.8480675816494371
vn 0.07674757918628179 0.14927000579145264 -0.9858135089661053
vn 0.2503916364315858 -0.7306713213504212 -0.6351562394884758
vn -0.08930988376427539 0.17065444112542233 -0.9812750921052574
vn 0.2563671522617335 0.3088581553605594 -0.9159053024786361
vn 0.31382349304847296 -0.7680064169426691 -0.558283940970666
vn 0.15871815294436095 0.32820715283473734 -0.9311759300766133
vn 0.25174218040649776 0.36495554684352627 -0.8963444223245465
vn 0.3031958318594281 0.2907083775939108 -0.9075025767124774
vn -0.0636143872804632 0.09676400296622074 -0.9932723380125335
vn 7.362440064380396E-4 0.4332248893062244 -0.9012855558758126
vn -0.1268285993597865 -0.3367943320910723 -0.93299736562102
vn -4.864779064000651E-4 0.07004046178677781 -0.9975440326381296
vn 0.003392075192279984 0.4338071524245612 -0.9009993608938818
vn 0.20883111640272017 -0.5556290159201788 -0.804776963816415
vn -0.10834445712807314 0.14796585172753735 -0.9830399713806999
vn 0.39955674774975086 -0.2440076039319471 -0.8836371962242378
vn 0.26315857085443367 0.4403048779407927 -0.8584166709980624
vn -0.14001613470256088 0.09819758225452291 -0.9852678401644502
vn 0.24452291677933347 -0.5615009582388726 -0.7905221167472515

f  1//1 47//47 27//27 20//20
f  1//1 20//20 15//15 34//34 43//43
f  1//1 43//43 5//5 9//9
f  1//1 9//9 45//45 47//47
f  2//2 13//13 55//55 36//36 8//8 14//14 17//17 57//57 60//60 46//46 5//5 43//43 34//34 15//15 7//7 10//10 52//52 33//33 26//26 41//41 31//31 39//39 37//37 19//19 53//53 24//24 50//50 59//59
f  2//2 59//59 4//4 29//29 21//21
f  2//2 21//21 32//32 54//54 18//18 13//13
f  3//3 16//16 22//22 42//42
f  3//3 42//42 33//33 52//52 44//44 6//6
f  3//3 6//6 32//32 21//21
f  3//3 21//21 29//29 16//16
f  4//4 50//50 24//24 53//53
f  4//4 53//53 19//19 29//29
f  4//4 59//59 50//50
f  5//5 46//46 40//40 9//9
f  6//6 38//38 11//11 32//32
f  6//6 44//44 56//56 38//38
f  7//7 15//15 20//20 56//56
f  7//7 56//56 44//44 10//10
f  8//8 36//36 55//55 18//18
f  8//8 18//18 54//54 23//23 14//14
f  9//9 40//40 49//49 45//45
f  10//10 44//44 52//52
f  11//11 38//38 27//27 51//51
f  11//11 51//51 28//28 30//30
f  11//11 30//30 54//54 32//32
f  12//12 25//25 28//28 51//51
f  12//12 51//51 27//27 47//47
f  12//12 47//47 45//45 58//58
f  12//12 58//58 48//48 25//25
f  13//13 18//18 55//55
f  14//14 23//23 35//35 17//17
f  16//16 37//37 39//39 22//22
f  16//16 29//29 19//19 37//37
f  17//17 35//35 49//49 57//57
f  20//20 27//27 38//38 56//56
f  22//22 39//39 31//31
f  22//22 31//31 41//41 42//42
f  23//23 54//54 30//30 48//48
f  23//23 48//48 58//58 35//35
f  25//25 48//48 30//30 28//28
f  26//26 33//33 42//42 41//41
f  35//35 58//58 45//45 49//49
f  40//40 46//46 60//60
f  40//40 60//60 57//57 49//49
