v 17.354590856739463 7.036088433653503 1.0228159387972655
v 17.1686329464127 7.938879144393843 0.0
v 1.0384931118151164 -0.8600324483578659 0.4234531737618784
v -15.763381269941636 4.16825697773514 -1.6197382888809846
v -3.4598153579174538 -2.799012991020079 0.30584060483649717
v 17.62043907658145 -7.164354349818831 0.0
v -2.2900481459353283 -7.595651338628387 -2.277292983194044
v 18.029955267143283 3.2604121781086834 3.1491870719656916
v -3.7187607303628463 11.434789962837396 4.257230171212164
v -8.32526997575247 4.8751413113586795 2.1102402478502085
v 17.290293017916085 7.351536432600051 0.6851941229306193
v 10.000980202602026 10.144035167813797 1.0276144840893726
v 15.770109690118653 1.9252897071810382 1.9274588737664546
v -9.082708866654896 2.3272303853469958 1.5806753094951669
v 8.517958993043559 1.8664261906278574 1.0411610179303645
v -17.039164746321553 -3.92403176833019 0.865559254226258
v -17.598995053560163 -4.751501325438137 0.5704537416764763
v 15.756934221761126 4.0842775317587945 2.551059338051917
v -16.7529555842276 -3.4161339998661537 0.928260879644598
v 7.664438031897408 10.601457836132969 1.6151934006378257
v -5.714757921383435 4.327975961229825 2.338488743164065
v -10.034438669525922 10.90840416694074 4.179615846071141
v -18.26587640539396 -5.550761027787562 0.0
v 8.630825135549497 6.057528910289467 2.405109636137755
v 18.2405725593671 1.5081836836308686 2.805426223272956
v -7.792830608585532 11.187091532713218 4.452351307485968
v 6.204423190528268 1.417444252727446 0.9201167927596292
v -16.84591428200644 9.165210069137606 0.0
v -15.987268101956856 5.548792579902816 -1.731148364820583
v -4.4780811898656925 -7.486769292096751 -1.9204066437783522
v 6.386312475645405 6.649707324941788 2.6227512635688424
v 15.545613266771266 1.9515134987298473 1.870968984227962
v -7.056983384634462 1.2604901775781785 1.6492328174370074
v 15.55209541026236 4.151155459335563 2.5164286235983173
vn 0.027608005765334634 -0.47133408958099715 -0.8815225317690487
vn 0.488285815377879 -0.6178481073207059 -0.616312160176141
vn -0.04056702608947488 0.2350468019436254 -0.9711371258943456
vn 0.3949835997558059 -0.17205084744513013 -0.9024336329156609
vn -0.0851078093265512 0.37256846927210685 -0.9240938245091105
vn 0.10593355879916312 -0.023497172930149787 -0.9940955507316361
vn -0.010093399243509995 0.20610015651297817 -0.9784788443175647
vn 0.2245148245956598 -0.14151743881191536 -0.9641399836376957
vn -0.15092651556027373 0.05640665344905742 -0.9869343829999603
vn 0.2765655655597907 0.25372684983354366 -0.9268949096958831
vn 0.2551457418640485 -0.5630690552217646 -0.7860368244938106
vn 0.178338473743542 -0.48346442734285644 -0.8570049803104227
vn 0.21974060277042898 0.030881395115773213 -0.9750694369786143
vn 0.24628149178012737 -0.03324907264151263 -0.9686278573193289
vn 0.07216132446014954 0.09335843742327117 -0.9930140711057635
vn -0.0066468083084891 0.21303146681827506 -0.9770227295639362
vn -0.06623607462383821 0.4080627733297878 -0.9105479424175466
vn 0.1842942955581205 -0.12218883300930995 -0.9752463800048473
vn 0.19838581818616804 -0.15273964050164096 -0.9681496110426497
vn -0.19878399179177375 -0.2174785101163986 -0.9556087181712394
vn 0.013129798365094768 0.2599780114525348 -0.965525267383551
vn 0.25535654361260235 0.4152744970005781 -0.8731209124600912
vn -0.06313237372802782 0.4392891572914018 -0.8961246228475563
vn 0.11859325311749849 -0.07672341105777793 -0.9899743221471293
vn 0.2366520872319167 0.1004547209966187 -0.9663874164320791
vn 0.006529915178374194 0.3105645284472254 -0.9505298700609655
vn 0.0399507800355291 0.055847488946548896 -0.9976397110946005
vn 0.42812095636457537 0.470886664201516 -0.7713482975923718
vn 0.4517376986490529 0.24301638555779562 -0.8584148693782526
vn -0.09434052504048218 0.4308740939118199 -0.8974672030390607
vn -0.12100590097701636 0.03985158712582958 -0.9918515125422218
vn 0.1684231556771993 0.07955090216989556 -0.9824995137890347
vn 0.006605939853749122 0.21076578267137838 -0.9775142691611054
vn 0.24219996717617465 -0.1424668368388202 -0.959709527045033

f  1//1 8//8 18//18
f  1//1 18//18 34//34 11//11
f  2//2 11//11 34//34 24//24 12//12
f  3//3 5//5 33//33 21//21
f  3//3 21//21 26//26 9//9 31//31 27//27
f  3//3 27//27 13//13 25//25 6//6 7//7
f  3//3 7//7 30//30 5//5
f  4//4 29//29 10//10 14//14
f  4//4 14//14 19//19
f  5//5 17//17 16//16 33//33
f  5//5 30//30 23//23 17//17
f  8//8 25//25 13//13 18//18
f  9//9 20//20 31//31
f  10//10 21//21 33//33 14//14
f  10//10 29//29 28//28 22//22
f  10//10 22//22 26//26 21//21
f  12//12 24//24 31//31 20//20
f  13//13 32//32 34//34 18//18
f  13//13 27//27 15//15 32//32
f  14//14 33//33 16//16 19//19
f  15//15 27//27 31//31 24//24
f  15//15 24//24 34//34 32//32
