v -0.8645498733873548 0.5116456300908337 0.4138500158227734
v -0.8411935560654334 0.4899035256428267 0.4500365883895893
v -0.8092837352469069 0.48990352564282846 0.4819464092081154
v -0.7730971626800852 0.5116456300908465 0.5053027265300429
v -0.887906190709259 0.5333877345388706 0.4500365883895788
v -0.8645498733873379 0.5116456300908655 0.4776696574597946
v -0.8369168043171139 0.5116456300908669 0.5053027265300202
v -0.809283735246894 0.5333877345388791 0.5286590438519485
v -0.919816011527753 0.5333877345389372 0.4819464092080775
v -0.8921829424575294 0.5116456300909326 0.5053027265299948
v -0.8645498733873037 0.5116456300909329 0.5329357956002226
v -0.8411935560653833 0.5333877345389426 0.5605688646704547
v -0.9560025840945304 0.5116456300910512 0.5053027265299903
v -0.9198160115277056 0.4899035256430477 0.5286590438519054
v -0.8879061907091771 0.4899035256430464 0.5605688646704339
v -0.8645498733872541 0.5116456300910525 0.5967554372372691
vt 0.0 0.0 0.0 1.0
vt 0.0 0.0 0.0 1.0
vt 0.0 0.0 0.0 1.0
vt 0.0 0.0 0.0 1.0
vt 0.0 0.0 0.0 1.0
vt 0.0 0.0 0.0 1.0
vt 0.0 0.0 0.0 1.0
vt 0.0 0.0 0.0 1.0
vt 0.0 0.0 0.0 1.0
vt 0.0 0.0 0.0 1.0
vt 0.0 0.0 0.0 1.0
vt 0.0 0.0 0.0 1.0
vt 0.0 0.0 0.0 1.0
vt 0.0 0.0 0.0 1.0
vt 0.0 0.0 0.0 1.0
vt 0.0 0.0 0.0 1.0
vn 0.6813609067775621 0.7319476174667544 -5.443442323976098E-13
vn 0.52325560626315 0.7941474033253305 -0.18257515287466108
vn 0.1825751528746076 0.7941474033253315 -0.5232556062631689
vn 4.772761462550857E-13 0.7319476174667565 -0.68136090677756
vn 0.523255606263379 0.794147403325571 0.18257515287332352
vn 0.3529153795691708 0.8611604989587622 -8.375383719894103E-13
vn 7.584327984770507E-13 0.8611604989587596 -0.3529153795691514
vn -0.1825751528734457 0.7941474033255658 -0.5232556062633044
vn 0.1825751528752548 0.7941474033261826 0.5232556062617197
vn 1.1729703048086266E-12 0.8611604989594416 0.3529153795673064
vn -0.3529153795674393 0.8611604989593633 -1.0259848526317228E-12
vn -0.5232556062619698 0.7941474033260261 -0.1825751528749451
vn 1.3137305764261763E-12 0.7319476174679778 0.681360906776248
vn -0.18257515287284562 0.7941474033266894 0.5232556062616268
vn -0.5232556062617879 0.7941474033265392 0.18257515287308204
vn -0.6813609067765708 0.7319476174676773 -8.415520838693638E-13

f  6/6/6 2/2/2 1/1/1 5/5/5
f  7/7/7 3/3/3 2/2/2 6/6/6
f  8/8/8 4/4/4 3/3/3 7/7/7
f  10/10/10 6/6/6 5/5/5 9/9/9
f  11/11/11 7/7/7 6/6/6 10/10/10
f  12/12/12 8/8/8 7/7/7 11/11/11
f  14/14/14 10/10/10 9/9/9 13/13/13
f  15/15/15 11/11/11 10/10/10 14/14/14
f  16/16/16 12/12/12 11/11/11 15/15/15
